<?xml version="1.0" encoding="UTF-8" standalone="no"?>
<!DOCTYPE svg PUBLIC "-//W3C//DTD SVG 1.1//EN"
 "http://www.w3.org/Graphics/SVG/1.1/DTD/svg11.dtd">
<!-- Generated by graphviz version 2.50.0 (0)
 -->
<!-- Title: G Pages: 1 -->
<svg width="226pt" height="373pt"
 viewBox="0.00 0.00 225.95 373.00" xmlns="http://www.w3.org/2000/svg" xmlns:xlink="http://www.w3.org/1999/xlink">
<g id="graph0" class="graph" transform="scale(1 1) rotate(0) translate(4 369)">
<title>G</title>
<polygon fill="white" stroke="transparent" points="-4,4 -4,-369 221.95,-369 221.95,4 -4,4"/>
<!-- n0out1 -->
<!-- n0out2 -->
<!-- n0out1&#45;&gt;n0out2 -->
<!-- n0out3 -->
<!-- n0out2&#45;&gt;n0out3 -->
<!-- n0out4 -->
<!-- n0out3&#45;&gt;n0out4 -->
<!-- n0out5 -->
<!-- n0out4&#45;&gt;n0out5 -->
<!-- n1 -->
<!-- 1 -->
<g id="n1" class="node">
<title>n1</title>
<polygon fill="none" stroke="black" points="119,-137.5 119,-162.5 143,-162.5 143,-137.5 119,-137.5"/>
<text text-anchor="start" x="126" y="-146.3" font-family="Serif" font-size="14.00">1</text>
</g>
<!-- n6 -->
<!-- junction -->
<g id="n6" class="node">
<title>n6</title>
<ellipse fill="black" stroke="black" cx="131" cy="-100" rx="2" ry="2"/>
</g>
<!-- n1&#45;&gt;n6 -->
<!-- 1 -->
<g id="e3" class="edge">
<title>n1:s&#45;&gt;n6</title>
<path fill="none" stroke="black" d="M131,-138C131,-127.18 131,-114.58 131,-107.23"/>
<polygon fill="black" stroke="black" points="132.75,-107.15 131,-102.15 129.25,-107.15 132.75,-107.15"/>
</g>
<!-- n2 -->
<!-- 2 -->
<g id="n2" class="node">
<title>n2</title>
<polygon fill="none" stroke="black" points="101,-339.5 101,-364.5 125,-364.5 125,-339.5 101,-339.5"/>
<text text-anchor="start" x="108" y="-348.3" font-family="Serif" font-size="14.00">2</text>
</g>
<!-- n7 -->
<!-- junction -->
<g id="n7" class="node">
<title>n7</title>
<ellipse fill="black" stroke="black" cx="113" cy="-302" rx="2" ry="2"/>
</g>
<!-- n2&#45;&gt;n7 -->
<!-- 2 -->
<g id="e5" class="edge">
<title>n2:s&#45;&gt;n7</title>
<path fill="none" stroke="black" d="M113,-340C113,-329.18 113,-316.58 113,-309.23"/>
<polygon fill="black" stroke="black" points="114.75,-309.15 113,-304.15 111.25,-309.15 114.75,-309.15"/>
</g>
<!-- n3 -->
<!-- 3 -->
<g id="n3" class="node">
<title>n3</title>
<polygon fill="none" stroke="black" points="101,-238.5 101,-263.5 125,-263.5 125,-238.5 101,-238.5"/>
<text text-anchor="start" x="108" y="-247.3" font-family="Serif" font-size="14.00">3</text>
</g>
<!-- n8 -->
<!-- junction -->
<g id="n8" class="node">
<title>n8</title>
<ellipse fill="black" stroke="black" cx="113" cy="-201" rx="2" ry="2"/>
</g>
<!-- n3&#45;&gt;n8 -->
<!-- 3 -->
<g id="e7" class="edge">
<title>n3:s&#45;&gt;n8</title>
<path fill="none" stroke="black" d="M113,-239C113,-228.18 113,-215.58 113,-208.23"/>
<polygon fill="black" stroke="black" points="114.75,-208.15 113,-203.15 111.25,-208.15 114.75,-208.15"/>
</g>
<!-- n4 -->
<!-- 4 -->
<g id="n4" class="node">
<title>n4</title>
<polygon fill="none" stroke="black" points="161,-137.5 161,-162.5 209,-162.5 209,-137.5 161,-137.5"/>
<text text-anchor="start" x="180" y="-146.3" font-family="Serif" font-size="14.00">4</text>
</g>
<!-- n9 -->
<!-- junction -->
<g id="n9" class="node">
<title>n9</title>
<ellipse fill="black" stroke="black" cx="193" cy="-100" rx="2" ry="2"/>
</g>
<!-- n4&#45;&gt;n9 -->
<!-- 4 -->
<g id="e8" class="edge">
<title>n4:s&#45;&gt;n9</title>
<path fill="none" stroke="black" d="M185,-138C185,-126.93 188.46,-114.41 190.83,-107.14"/>
<polygon fill="black" stroke="black" points="192.58,-107.43 192.57,-102.13 189.28,-106.28 192.58,-107.43"/>
</g>
<!-- n5 -->
<!-- 5 -->
<g id="n5" class="node">
<title>n5</title>
<polygon fill="none" stroke="black" points="157,-36.5 157,-61.5 205,-61.5 205,-36.5 157,-36.5"/>
<text text-anchor="start" x="176" y="-45.3" font-family="Serif" font-size="14.00">5</text>
</g>
<!-- n5&#45;&gt;n0out5 -->
<!-- 5 -->
<g id="e10" class="edge">
<title>n5:s&#45;&gt;n0out5:n</title>
<path fill="none" stroke="black" d="M181,-37C181,-22.88 181,-18.1 181,-6.17"/>
<polygon fill="black" stroke="black" points="182.75,-6 181,-1 179.25,-6 182.75,-6"/>
</g>
<!-- n6&#45;&gt;n0out1 -->
<!-- 1 -->
<g id="e11" class="edge">
<title>n6&#45;&gt;n0out1:n</title>
<path fill="none" stroke="black" d="M129.32,-98.56C115.25,-94.77 17.56,-66.32 12.23,-6.15"/>
<polygon fill="black" stroke="black" points="13.97,-5.92 12,-1 10.47,-6.07 13.97,-5.92"/>
</g>
<!-- n6&#45;&gt;n5 -->
<!-- 1 -->
<g id="e2" class="edge">
<title>n6&#45;&gt;n5:n</title>
<path fill="none" stroke="black" d="M132.63,-98.38C139.28,-95.73 164.16,-84.76 168.39,-67.14"/>
<polygon fill="black" stroke="black" points="170.15,-67.17 169,-62 166.67,-66.76 170.15,-67.17"/>
</g>
<!-- n7&#45;&gt;n0out2 -->
<!-- 2 -->
<g id="e12" class="edge">
<title>n7&#45;&gt;n0out2:n</title>
<path fill="none" stroke="black" d="M111.96,-300.15C103.99,-293.55 53,-249.43 53,-202 53,-202 53,-202 53,-99 53,-57.31 53.92,-45.55 53.99,-6.44"/>
<polygon fill="black" stroke="black" points="55.74,-6 54,-1 52.24,-6 55.74,-6"/>
</g>
<!-- n7&#45;&gt;n3 -->
<!-- 2 -->
<g id="e6" class="edge">
<title>n7&#45;&gt;n3:n</title>
<path fill="none" stroke="black" d="M113,-299.85C113,-295.83 113,-281.98 113,-269.07"/>
<polygon fill="black" stroke="black" points="114.75,-269 113,-264 111.25,-269 114.75,-269"/>
</g>
<!-- n7&#45;&gt;n4 -->
<!-- 2 -->
<g id="e4" class="edge">
<title>n7&#45;&gt;n4:n</title>
<path fill="none" stroke="black" d="M113.85,-299.97C120.94,-291.26 170.2,-228.74 172.89,-168.11"/>
<polygon fill="black" stroke="black" points="174.64,-168.04 173,-163 171.14,-167.96 174.64,-168.04"/>
</g>
<!-- n8&#45;&gt;n0out3 -->
<!-- 3 -->
<g id="e13" class="edge">
<title>n8&#45;&gt;n0out3:n</title>
<path fill="none" stroke="black" d="M112.81,-198.74C110.98,-186.57 96.64,-88.56 96.02,-6.39"/>
<polygon fill="black" stroke="black" points="97.77,-5.99 96,-1 94.27,-6.01 97.77,-5.99"/>
</g>
<!-- n8&#45;&gt;n4 -->
<!-- 3 -->
<g id="e1" class="edge">
<title>n8&#45;&gt;n4:n</title>
<path fill="none" stroke="black" d="M115.08,-200.06C127.35,-200.31 190.14,-200 196.48,-168.35"/>
<polygon fill="black" stroke="black" points="198.26,-168.15 197,-163 194.78,-167.81 198.26,-168.15"/>
</g>
<!-- n9&#45;&gt;n0out4 -->
<!-- 4 -->
<g id="e14" class="edge">
<title>n9&#45;&gt;n0out4:n</title>
<path fill="none" stroke="black" d="M193.89,-98.06C199.39,-92.1 228.04,-59.32 214,-37 195.31,-7.29 144.53,-34.86 139.42,-6.11"/>
<polygon fill="black" stroke="black" points="141.15,-5.84 139,-1 137.66,-6.13 141.15,-5.84"/>
</g>
<!-- n9&#45;&gt;n5 -->
<!-- 4 -->
<g id="e9" class="edge">
<title>n9&#45;&gt;n5:n</title>
<path fill="none" stroke="black" d="M193,-97.85C193,-93.83 193,-79.98 193,-67.07"/>
<polygon fill="black" stroke="black" points="194.75,-67 193,-62 191.25,-67 194.75,-67"/>
</g>
</g>
</svg>
