<?xml version="1.0" encoding="UTF-8" standalone="no"?>
<!DOCTYPE svg PUBLIC "-//W3C//DTD SVG 1.1//EN"
 "http://www.w3.org/Graphics/SVG/1.1/DTD/svg11.dtd">
<!-- Generated by graphviz version 2.50.0 (0)
 -->
<!-- Title: G Pages: 1 -->
<svg width="201pt" height="68pt"
 viewBox="0.00 0.00 200.85 68.21" xmlns="http://www.w3.org/2000/svg" xmlns:xlink="http://www.w3.org/1999/xlink">
<g id="graph0" class="graph" transform="scale(1 1) rotate(0) translate(4 64.21)">
<title>G</title>
<polygon fill="white" stroke="transparent" points="-4,4 -4,-64.21 196.85,-64.21 196.85,4 -4,4"/>
<!-- n1 -->
<g id="node1" class="node">
<title>n1</title>
<ellipse fill="none" stroke="black" cx="125.03" cy="-49.61" rx="10.71" ry="10.71"/>
<text text-anchor="middle" x="125.03" y="-45.91" font-family="Times,serif" font-size="14.00">1</text>
</g>
<!-- n5 -->
<g id="node5" class="node">
<title>n5</title>
<ellipse fill="none" stroke="black" cx="182.25" cy="-29.61" rx="10.71" ry="10.71"/>
<text text-anchor="middle" x="182.25" y="-25.91" font-family="Times,serif" font-size="14.00">5</text>
</g>
<!-- n1&#45;&gt;n5 -->
<g id="edge1" class="edge">
<title>n1&#45;&gt;n5</title>
<path fill="none" stroke="black" d="M135.15,-46.3C143.81,-43.17 156.96,-38.4 167,-34.77"/>
<polygon fill="black" stroke="black" points="167.83,-36.33 171.93,-32.98 166.63,-33.04 167.83,-36.33"/>
</g>
<!-- n2 -->
<g id="node2" class="node">
<title>n2</title>
<ellipse fill="none" stroke="black" cx="10.61" cy="-10.61" rx="10.71" ry="10.71"/>
<text text-anchor="middle" x="10.61" y="-6.91" font-family="Times,serif" font-size="14.00">2</text>
</g>
<!-- n3 -->
<g id="node3" class="node">
<title>n3</title>
<ellipse fill="none" stroke="black" cx="67.82" cy="-30.61" rx="10.71" ry="10.71"/>
<text text-anchor="middle" x="67.82" y="-26.91" font-family="Times,serif" font-size="14.00">3</text>
</g>
<!-- n2&#45;&gt;n3 -->
<g id="edge3" class="edge">
<title>n2&#45;&gt;n3</title>
<path fill="none" stroke="black" d="M20.72,-13.91C29.38,-17.05 42.53,-21.81 52.58,-25.45"/>
<polygon fill="black" stroke="black" points="52.21,-27.17 57.5,-27.23 53.4,-23.88 52.21,-27.17"/>
</g>
<!-- n4 -->
<g id="node4" class="node">
<title>n4</title>
<ellipse fill="none" stroke="black" cx="125.03" cy="-10.61" rx="10.71" ry="10.71"/>
<text text-anchor="middle" x="125.03" y="-6.91" font-family="Times,serif" font-size="14.00">4</text>
</g>
<!-- n2&#45;&gt;n4 -->
<g id="edge2" class="edge">
<title>n2&#45;&gt;n4</title>
<path fill="none" stroke="black" d="M21.58,-10.61C41.38,-10.61 85.74,-10.61 109.06,-10.61"/>
<polygon fill="black" stroke="black" points="109.24,-12.36 114.24,-10.61 109.24,-8.86 109.24,-12.36"/>
</g>
<!-- n3&#45;&gt;n4 -->
<g id="edge4" class="edge">
<title>n3&#45;&gt;n4</title>
<path fill="none" stroke="black" d="M77.94,-27.3C86.6,-24.17 99.75,-19.4 109.79,-15.77"/>
<polygon fill="black" stroke="black" points="110.61,-17.33 114.72,-13.98 109.42,-14.04 110.61,-17.33"/>
</g>
<!-- n4&#45;&gt;n5 -->
<g id="edge5" class="edge">
<title>n4&#45;&gt;n5</title>
<path fill="none" stroke="black" d="M135.4,-13.83C144.1,-16.82 157.17,-21.32 167.13,-24.75"/>
<polygon fill="black" stroke="black" points="166.72,-26.46 172.02,-26.43 167.86,-23.15 166.72,-26.46"/>
</g>
</g>
</svg>
